<svg xmlns="http://www.w3.org/2000/svg" viewBox="0 0 24 24" fill="none">
  <rect x="3" y="3" width="6" height="6" rx="1.5" stroke="#000" stroke-width="1.8" />
  <rect x="15" y="3" width="6" height="6" rx="1.5" stroke="#000" stroke-width="1.8" />
  <rect x="3" y="15" width="6" height="6" rx="1.5" stroke="#000" stroke-width="1.8" />
  <rect x="15" y="15" width="2" height="2" rx="0.5" fill="#000" />
  <rect x="19" y="15" width="2" height="2" rx="0.5" fill="#000" />
  <rect x="15" y="19" width="2" height="2" rx="0.5" fill="#000" />
  <rect x="19" y="19" width="2" height="2" rx="0.5" fill="#000" />
  <rect x="10" y="10" width="2" height="2" rx="0.5" fill="#000" />
  <rect x="14" y="10" width="2" height="2" rx="0.5" fill="#000" />
  <rect x="10" y="14" width="2" height="2" rx="0.5" fill="#000" />
  <rect x="14" y="14" width="2" height="2" rx="0.5" fill="#000" />
  <rect x="18" y="10" width="2" height="2" rx="0.5" fill="#000" />
</svg>
